<svg width="30" height="27" viewBox="0 0 30 27" fill="none" xmlns="http://www.w3.org/2000/svg">
<path d="M20.25 16.0312C18.5684 16.0312 17.7598 16.875 15 16.875C12.2402 16.875 11.4375 16.0312 9.75 16.0312C5.40234 16.0312 1.875 19.2059 1.875 23.1187V24.4688C1.875 25.8662 3.13477 27 4.6875 27H25.3125C26.8652 27 28.125 25.8662 28.125 24.4688V23.1187C28.125 19.2059 24.5977 16.0312 20.25 16.0312ZM25.3125 24.4688H4.6875V23.1187C4.6875 20.6086 6.96094 18.5625 9.75 18.5625C10.6055 18.5625 11.9941 19.4062 15 19.4062C18.0293 19.4062 19.3887 18.5625 20.25 18.5625C23.0391 18.5625 25.3125 20.6086 25.3125 23.1187V24.4688ZM15 15.1875C19.6582 15.1875 23.4375 11.7861 23.4375 7.59375C23.4375 3.40137 19.6582 0 15 0C10.3418 0 6.5625 3.40137 6.5625 7.59375C6.5625 11.7861 10.3418 15.1875 15 15.1875ZM15 2.53125C18.0996 2.53125 20.625 4.8041 20.625 7.59375C20.625 10.3834 18.0996 12.6562 15 12.6562C11.9004 12.6562 9.375 10.3834 9.375 7.59375C9.375 4.8041 11.9004 2.53125 15 2.53125Z" fill="black"/>
</svg>
