<svg width="124" height="127" viewBox="0 0 124 127" fill="none" xmlns="http://www.w3.org/2000/svg">
<path d="M100.75 23.8125C96.5287 27.9503 91.5071 31.1356 86.0095 33.1629C80.2125 34.2106 64.17 26.5906 56.265 34.3694C54.9475 35.7187 53.32 37.0681 51.615 38.4175C47.895 36.7506 42.16 34.2106 37.975 31.75C33.79 29.2894 23.25 23.8125 23.25 23.8125L0 51.5937C0 51.5937 5.735 59.5312 9.3 64.77C11.625 68.2625 14.4925 73.5806 16.3525 77.1525L13.7175 80.3275C13.0865 81.6114 12.8594 83.0639 13.0676 84.4854C13.2758 85.9068 13.909 87.2273 14.88 88.265C16.0008 89.1256 17.3645 89.5895 18.7653 89.5866C20.1662 89.5837 21.528 89.1143 22.6455 88.2491C22.2312 88.746 21.9176 89.3224 21.723 89.9447C21.5285 90.567 21.4569 91.2228 21.5125 91.8737C21.568 92.5247 21.7496 93.1578 22.0466 93.7361C22.3436 94.3144 22.75 94.8263 23.2422 95.2421C24.4257 95.95 25.7721 96.3217 27.1426 96.3189C28.5131 96.3161 29.8581 95.9389 31.0387 95.2262C30.1533 96.3566 29.6688 97.7614 29.6645 99.2106C29.6603 100.66 30.1366 102.068 31.0155 103.203C32.1579 103.608 33.3763 103.738 34.5755 103.581C35.7747 103.424 36.9223 102.985 37.9285 102.298C37.4272 103.514 37.2973 104.856 37.5561 106.148C37.8148 107.441 38.45 108.622 39.3777 109.537C40.6883 110.134 42.1253 110.38 43.554 110.252C44.9827 110.124 46.3564 109.627 47.5462 108.807L51.5452 105.1C55.2032 108.831 60.2485 111.141 65.8207 111.141L66.2935 111.133C68.1298 110.972 69.889 110.303 71.3825 109.197C72.876 108.091 74.0477 106.59 74.772 104.854C75.9035 105.299 77.19 105.6 78.554 105.6C80.383 105.6 82.0802 105.061 83.514 104.132C88.0477 101.06 86.9627 98.679 86.9627 98.679C88.5749 99.3897 90.3656 99.5583 92.0772 99.1603C93.7888 98.7623 95.333 97.8184 96.4875 96.4644C97.6872 95.2075 98.4437 93.5768 98.6374 91.8303C98.8311 90.0837 98.4509 88.3209 97.557 86.8204C97.606 86.8503 97.6628 86.8642 97.7197 86.8601C100.982 86.8601 103.819 85.0186 105.299 82.3039C106.028 80.3745 106.274 78.2893 106.015 76.2377C105.757 74.1861 105.002 72.2332 103.819 70.5564L103.842 70.5961C110.197 69.3261 109.965 66.0717 113.065 61.3092C116 57.4228 119.652 54.1649 123.814 51.7207L100.75 23.8125ZM100.362 79.8512C96.9525 83.3438 94.3175 81.8356 88.505 77.3112C82.6925 72.7869 71.145 64.2938 71.145 64.2938C71.6177 66.7147 72.7105 68.8181 74.2527 70.4929C76.725 73.3425 84.0875 79.8512 87.575 83.185C89.745 85.2487 95.325 89.3762 92.07 92.5512C88.815 95.7262 86.2575 92.5512 80.91 88.1062C75.5625 83.6613 63.6275 72.7075 63.6275 72.7075C63.5617 73.7575 63.7143 74.8098 64.075 75.795C64.4357 76.7801 64.9964 77.6757 65.72 78.4225C67.0375 80.01 74.4 87.3125 77.5 90.6462C80.6 93.98 83.3125 95.9644 80.6775 98.5837C78.0425 101.203 72.695 97.0756 69.75 93.98C65.1775 89.4556 56.11 81.0419 56.11 81.0419L56.1022 81.4626C56.1022 83.7168 56.8617 85.7806 58.1405 87.4157C60.3725 90.4161 64.7125 94.3054 67.3475 97.3217C69.9825 100.338 71.5325 102.878 67.3475 105.259C63.1625 107.64 56.9625 101.767 54.25 98.9092V98.8933C54.2506 98.1093 53.9754 97.3513 53.475 96.7581C52.548 95.8786 51.4042 95.2748 50.1669 95.0119C48.9296 94.7489 47.6457 94.8367 46.4535 95.2659C46.944 94.8161 47.3372 94.2662 47.6078 93.6515C47.8785 93.0368 48.0205 92.3709 48.0249 91.6966C48.0293 91.0223 47.8959 90.3546 47.6333 89.7362C47.3706 89.1179 46.9846 88.5627 46.5 88.1062C45.4827 87.3168 44.241 86.8902 42.9647 86.8917C41.6884 86.8931 40.4476 87.3225 39.432 88.1142C39.9455 87.6118 40.342 86.9973 40.5918 86.3165C40.8417 85.6356 40.9386 84.9059 40.8753 84.1814C40.812 83.457 40.5902 82.7564 40.2263 82.1318C39.8623 81.5072 39.3657 80.9746 38.7732 80.5736C37.3859 79.6807 35.7579 79.2612 34.1231 79.3753C32.4884 79.4894 30.931 80.1312 29.6747 81.2086C30.5144 80.1663 30.9284 78.832 30.8301 77.4846C30.7319 76.1371 30.1292 74.8805 29.1477 73.9775C27.928 72.8147 26.3736 72.0874 24.7169 71.9043C23.0602 71.7212 21.3901 72.0921 19.9562 72.9615L14.8025 64.0477C11.2375 58.2533 7.0525 52.2208 7.0525 52.2208L24.7225 30.2339C24.7225 30.2339 31 34.2027 36.1925 37.2189C38.75 38.7271 43.1675 40.7114 46.5 42.2989C41.23 46.3471 36.8125 50.2364 38.13 52.9352C40.4779 54.6614 43.2838 55.6135 46.1736 55.6646C49.0633 55.7156 51.8996 54.8632 54.3042 53.2209C57.3874 51.1217 61.0102 50.0083 64.7125 50.0221C67.4017 50.0221 69.9592 50.5936 72.2765 51.6334C76.57 54.6021 84.475 61.9046 91.6825 66.5083C100.75 73.2552 102.532 77.6208 100.362 79.8433V79.8512Z" fill="#1E1E1E"/>
</svg>
