<svg width="30" height="27" viewBox="0 0 30 27" fill="none" xmlns="http://www.w3.org/2000/svg">
<g clip-path="url(#clip0_53_218)">
<path d="M15 0C11.1614 0 7.32198 1.31735 4.3932 3.95336C-1.4644 9.22532 -1.4644 17.7741 4.3932 23.046C10.2508 28.318 19.7492 28.318 25.6068 23.046C31.4644 17.7741 31.4644 9.22529 25.6068 3.95336C22.678 1.31735 18.8386 0 15 0ZM15 3.52652C17.836 3.52652 20.6727 4.49915 22.8365 6.44661C27.1642 10.3416 27.1642 16.6577 22.8365 20.5527C18.5089 24.4476 11.4911 24.4476 7.16345 20.5527C2.8358 16.6578 2.83582 10.3416 7.16345 6.44661C9.32728 4.49915 12.1641 3.52652 15 3.52652ZM13.4656 5.7924V12.0989H9.58215V15.5513H17.3015V5.7924H13.4656Z" fill="black"/>
</g>
<defs>
<clipPath id="clip0_53_218">
<rect width="30" height="27" fill="white"/>
</clipPath>
</defs>
</svg>
