<svg width="107" height="93" viewBox="0 0 107 93" fill="none" xmlns="http://www.w3.org/2000/svg">
<path d="M84.1341 51.77L64.2 67.1667H37.45V62H59.1978C59.6816 61.9998 60.1564 61.8728 60.5714 61.6326C60.9864 61.3924 61.3263 61.048 61.5546 60.636C61.783 60.2241 61.8914 59.76 61.8683 59.2932C61.8452 58.8265 61.6914 58.3745 61.4234 57.9855L56.6726 51.1035C55.698 49.6869 54.3755 48.5251 52.8231 47.7219C51.2707 46.9187 49.5367 46.4989 47.7755 46.5H5.35C3.93109 46.5 2.5703 47.0443 1.56698 48.0133C0.563659 48.9822 0 50.2964 0 51.6667V82.6667C0 85.4072 1.12732 88.0356 3.13396 89.9734C5.1406 91.9113 7.86218 93 10.7 93H62.2687C64.5564 93.0005 66.8177 92.5287 68.9012 91.6162C70.9847 90.7038 72.8421 89.3717 74.349 87.7093L107 51.6667L99.2318 49.166C96.6903 48.3479 93.977 48.1575 91.3398 48.6124C88.7025 49.0673 86.2252 50.1528 84.1341 51.77ZM71.706 46.5C75.9628 46.5 80.0452 44.867 83.0551 41.9602C86.0651 39.0533 87.7561 35.1109 87.7561 31C87.7561 17.0087 71.706 0 71.706 0C71.706 0 55.656 16.9002 55.656 31C55.656 35.1109 57.347 39.0533 60.357 41.9602C63.3669 44.867 67.4493 46.5 71.706 46.5Z" fill="#1E1E1E"/>
</svg>
