<svg width="135" height="97" viewBox="0 0 135 97" fill="none" xmlns="http://www.w3.org/2000/svg">
<path d="M44.5055 0H127.582V47.2564H115.714V9.94872H103.846V37.8947L86.044 30.4331L68.2418 37.8947V9.94872H56.3736V37.3077H44.5055V0ZM80.1099 9.94872V21.7976L86.044 19.3105L91.978 21.7976V9.94872H80.1099ZM50.0538 55.9615C49.0795 55.9594 48.1142 56.1182 47.2131 56.4289C46.312 56.7396 45.4928 57.1961 44.8022 57.7722L32.6374 67.9696V87.0513H66.0284L100.464 79.8385L121.423 72.3371C122.137 72.0137 122.683 71.4807 122.957 70.8404C123.231 70.2001 123.213 69.4976 122.907 68.8675C122.601 68.2375 122.029 67.7243 121.299 67.4264C120.57 67.1285 119.735 67.0669 118.954 67.2533L118.836 67.2782L80.7864 74.6154H59.3407V64.6667H77.8846C79.2617 64.6667 80.5824 64.2081 81.5561 63.3918C82.5299 62.5756 83.0769 61.4685 83.0769 60.3141C83.0769 59.1597 82.5299 58.0526 81.5561 57.2364C80.5824 56.4201 79.2617 55.9615 77.8846 55.9615H50.0538ZM94.8679 61.692L115.946 57.6279C118.191 57.1331 120.541 57.0761 122.816 57.4614C125.092 57.8466 127.231 58.6637 129.071 59.8501C130.911 61.0365 132.402 62.5605 133.43 64.3052C134.458 66.0499 134.995 67.9688 135 69.9146C135 72.277 134.214 74.5926 132.732 76.602C131.25 78.6113 129.13 80.235 126.609 81.291L126.449 81.3606L104.256 89.2947L67.4881 97H0V60.9359H24.2466L36.4233 50.7285C38.2174 49.2297 40.3461 48.0418 42.6879 47.2327C45.0297 46.4235 47.5387 46.009 50.0716 46.0128H77.8846C80.2638 46.0126 82.6168 46.4295 84.7924 47.2367C86.968 48.044 88.9181 49.2238 90.5174 50.7004C92.1168 52.1769 93.3301 53.9176 94.0793 55.8105C94.8285 57.7035 95.0971 59.7069 94.8679 61.692ZM20.7692 70.8846H11.8681V87.0513H20.7692V70.8846Z" fill="#1E1E1E"/>
</svg>
